<?xml version="1.0" encoding="UTF-8"?>
<svg id="TEASER" xmlns="http://www.w3.org/2000/svg" xmlns:xlink="http://www.w3.org/1999/xlink" viewBox="0 0 2400 1600">
  <defs>
    <style>
      .cls-1 {
        clip-path: url(#clippath);
      }

      .cls-2 {
        fill: #0096d2;
      }

      .cls-3 {
        fill: none;
      }

      .cls-3, .cls-4 {
        stroke: #000;
        stroke-width: 35px;
      }

      .cls-4 {
        fill: #00a050;
      }
    </style>
    <clipPath id="clippath">
      <circle class="cls-3" cx="905.48" cy="726.55" r="306.76"/>
    </clipPath>
  </defs>
  <rect class="cls-2" width="2400" height="1600"/>
  <g>
    <path class="cls-4" d="m1386.57,457c-115.7-115.7-303.3-115.7-419,0-115.7,115.7-115.7,303.3,0,419l419,419,419-419c115.7-115.7,115.7-303.3,0-419-115.7-115.7-303.3-115.7-419,0Z"/>
    <g>
      <path class="cls-4" d="m1411.54,1031.8c16.74-27.75,30.05-56.61,40.05-86.07l320.51,193.33c44.38,26.77,58.66,84.46,31.89,128.84-26.77,44.38-84.46,58.66-128.84,31.89l-320.31-193.2c21.1-22.4,40.16-47.37,56.69-74.78Z"/>
      <path class="cls-4" d="m1322.1,867.61l129.5,78.11c-10.01,29.46-23.32,58.32-40.05,86.07-16.54,27.42-35.59,52.38-56.69,74.78l-129.5-78.11c21.1-22.4,40.16-47.37,56.69-74.78,16.74-27.75,30.05-56.61,40.05-86.07Z"/>
      <path class="cls-4" d="m1132.61,349.98c-207.97-125.44-478.26-58.54-603.7,149.43-125.44,207.97-58.54,478.26,149.43,603.7,207.97,125.44,478.26,58.54,603.7-149.43,125.44-207.97,58.54-478.26-149.43-603.7Zm35.54,535.01c-87.5,145.07-276.05,191.74-421.12,104.24-145.07-87.5-191.74-276.05-104.24-421.12,87.5-145.07,276.05-191.74,421.12-104.24,145.07,87.5,191.74,276.05,104.24,421.12Z"/>
    </g>
    <g>
      <g class="cls-1">
        <path class="cls-4" d="m1401.57,423.33c-127.67-127.67-334.66-127.67-462.33,0-127.67,127.67-127.67,334.66,0,462.33l462.33,462.33,462.33-462.33c127.67-127.67,127.67-334.66,0-462.33-127.67-127.67-334.66-127.67-462.33,0Z"/>
      </g>
      <circle class="cls-3" cx="905.48" cy="726.55" r="306.76"/>
    </g>
  </g>
</svg>