<?xml version="1.0" encoding="UTF-8"?>
<svg id="TEASER" xmlns="http://www.w3.org/2000/svg" viewBox="0 0 2400 1600">
  <defs>
    <style>
      .cls-1, .cls-2 {
        fill: #ffc800;
      }

      .cls-3 {
        fill: #0096d2;
      }

      .cls-3, .cls-2 {
        stroke: #000;
        stroke-width: 35px;
      }
    </style>
  </defs>
  <rect class="cls-1" width="2400" height="1600"/>
  <g>
    <circle class="cls-3" cx="963.9" cy="726.55" r="439.76"/>
    <path class="cls-3" d="m1469.97,1031.8c16.74-27.75,30.05-56.61,40.05-86.07l320.51,193.33c44.38,26.77,58.66,84.46,31.89,128.84-26.77,44.38-84.46,58.66-128.84,31.89l-320.31-193.2c21.1-22.4,40.16-47.37,56.69-74.78Z"/>
    <path class="cls-3" d="m1380.52,867.61l129.5,78.11c-10.01,29.46-23.32,58.32-40.05,86.07-16.54,27.42-35.59,52.38-56.69,74.78l-129.5-78.11c21.1-22.4,40.16-47.37,56.69-74.78,16.74-27.75,30.05-56.61,40.05-86.07Z"/>
    <circle class="cls-2" cx="963.9" cy="726.55" r="306.76"/>
  </g>
</svg>