<svg width="162" height="25" viewBox="0 0 162 25" fill="none" xmlns="http://www.w3.org/2000/svg">
<path d="M40.8843 9.57342C40.2011 9.14569 39.4255 8.92855 38.5797 8.92855C37.9361 8.92855 37.3982 9.03835 36.9807 9.25549C36.5648 9.47182 36.229 9.73485 35.9839 10.038C35.7711 10.3011 35.5986 10.5534 35.4699 10.7902V5.49276H32.7594V19.9595H35.4278V18.2698H35.4435C35.5796 18.5222 35.7678 18.7902 36.0029 19.0679C36.2554 19.3662 36.5937 19.6235 37.0095 19.8324C37.4271 20.0422 37.9584 20.1487 38.5872 20.1487C39.4478 20.1487 40.23 19.9259 40.9107 19.4858C41.5914 19.0466 42.136 18.4009 42.5295 17.5668C42.9223 16.7351 43.1211 15.7133 43.1211 14.5292C43.1211 13.3452 42.9182 12.3029 42.5188 11.4736C42.1178 10.6419 41.5683 10.0028 40.8851 9.57506L40.8843 9.57342ZM40.074 16.277C39.8859 16.7842 39.6045 17.1882 39.239 17.4775C38.8759 17.7642 38.418 17.9101 37.8767 17.9101C37.3355 17.9101 36.913 17.7692 36.5524 17.4906C36.1886 17.2103 35.9072 16.8121 35.7141 16.3073C35.5194 15.7977 35.4204 15.1946 35.4204 14.5136C35.4204 13.8327 35.5169 13.2345 35.7067 12.7339C35.8948 12.239 36.1754 11.8497 36.5409 11.5761C36.9039 11.304 37.3536 11.1664 37.8767 11.1664C38.3999 11.1664 38.8834 11.3089 39.2464 11.5892C39.6119 11.8719 39.8917 12.2685 40.0773 12.7683C40.2654 13.2739 40.3603 13.8606 40.3603 14.5136C40.3603 15.1667 40.2638 15.7641 40.0732 16.2762L40.074 16.277Z" fill="#FA2027"/>
<path d="M53.1818 10.2511C52.7181 9.80285 52.1784 9.46607 51.5769 9.25139C50.9779 9.03752 50.3327 8.92854 49.661 8.92854C48.6189 8.92854 47.6981 9.16863 46.9241 9.64225C46.1502 10.1159 45.5404 10.7853 45.1114 11.6301C44.6831 12.4733 44.4661 13.4648 44.4661 14.5759C44.4661 15.687 44.6823 16.7015 45.1081 17.5356C45.5355 18.3731 46.1551 19.0278 46.9514 19.4834C47.7451 19.9381 48.7022 20.1684 49.7947 20.1684C50.6404 20.1684 51.4028 20.0381 52.0613 19.7825C52.7222 19.5252 53.2734 19.1564 53.6991 18.6853C54.1257 18.2141 54.4203 17.6528 54.5721 17.0186L54.5935 16.9284L52.0596 16.6457L52.0373 16.7056C51.9301 16.9948 51.7692 17.2406 51.5588 17.4357C51.3475 17.6315 51.0951 17.7823 50.8071 17.8822C50.5175 17.9838 50.1883 18.0346 49.8285 18.0346C49.2922 18.0346 48.8186 17.9199 48.4209 17.693C48.024 17.4668 47.7113 17.1349 47.4902 16.7072C47.2863 16.3122 47.1741 15.8354 47.1576 15.2872H54.6785V14.4301C54.6785 13.4845 54.544 12.6552 54.2792 11.9669C54.0135 11.277 53.6438 10.6993 53.1801 10.2511H53.1818ZM47.1675 13.4197C47.2005 13.0453 47.3053 12.6921 47.4794 12.3709C47.6898 11.9825 47.9885 11.6637 48.3689 11.4236C48.7476 11.1844 49.194 11.0631 49.6957 11.0631C50.166 11.0631 50.5835 11.1696 50.9366 11.3794C51.2898 11.5892 51.5695 11.8809 51.7675 12.2455C51.9548 12.5897 52.0571 12.9846 52.072 13.4197H47.1667H47.1675Z" fill="#FA2027"/>
<path d="M62.2778 8.93264C62.1004 8.92117 61.9387 8.91462 61.7976 8.91462C61.1639 8.91462 60.5937 9.08997 60.1011 9.43576C59.6457 9.75615 59.3098 10.2044 59.1027 10.7706V9.06785H56.469V19.9586H59.1795V13.5705C59.1795 13.1313 59.2818 12.7388 59.4839 12.4045C59.6861 12.0693 59.9675 11.8039 60.3206 11.6138C60.6746 11.4237 61.0814 11.327 61.5294 11.327C61.7398 11.327 61.9626 11.3417 62.1903 11.3712C62.4156 11.4007 62.5814 11.4335 62.6837 11.4687L62.7935 11.5064V8.99902L62.7275 8.98591C62.607 8.96214 62.4552 8.94412 62.277 8.93182L62.2778 8.93264Z" fill="#FA2027"/>
<path d="M71.1288 15.3658C71.1288 15.8927 71.0182 16.3352 70.8004 16.681C70.5817 17.0276 70.3003 17.2914 69.9637 17.4652C69.6254 17.6397 69.2714 17.7282 68.9117 17.7282C68.3291 17.7282 67.8522 17.5348 67.495 17.1538C67.136 16.7711 66.9545 16.2451 66.9545 15.5895V9.06866H64.244V15.9804C64.244 16.8457 64.4008 17.5954 64.7102 18.2067C65.0204 18.8213 65.4586 19.2957 66.0114 19.6169C66.5634 19.9373 67.2078 20.0996 67.9273 20.0996C68.7516 20.0996 69.4571 19.9021 70.0239 19.512C70.5561 19.1466 70.9538 18.6754 71.2063 18.1108V19.9594H73.8401V9.06866H71.1296V15.3658H71.1288Z" fill="#FA2027"/>
<path d="M79.903 7.39134C80.0804 7.18567 80.3964 7.0816 80.8428 7.0816C81.0375 7.0816 81.2166 7.09881 81.3742 7.1324C81.5342 7.16682 81.6696 7.20041 81.7752 7.23155L81.8577 7.25613L82.4047 5.14451L82.3321 5.11993C82.1655 5.06339 81.9064 4.99866 81.5623 4.92901C81.2166 4.85854 80.8156 4.82249 80.3717 4.82249C79.7388 4.82249 79.1546 4.94458 78.6348 5.1863C78.1117 5.42967 77.6892 5.80168 77.3798 6.29251C77.0704 6.78334 76.9136 7.40363 76.9136 8.13782V9.06867H75.317V11.1877H76.9136V19.9595H79.6315V11.1877H81.8676V9.06867H79.6315V8.3058C79.6315 7.9092 79.7231 7.60111 79.9038 7.39216L79.903 7.39134Z" fill="#FA2027"/>
<path d="M89.0353 13.6795L87.1937 13.2886C86.6607 13.1665 86.2762 13.01 86.0501 12.824C85.8314 12.6437 85.7275 12.4151 85.7316 12.1251C85.7275 11.7891 85.8884 11.522 86.2242 11.3081C86.5674 11.0893 87.0014 10.9787 87.5122 10.9787C87.8917 10.9787 88.216 11.0393 88.4759 11.1598C88.735 11.2794 88.9438 11.4384 89.0964 11.6318C89.2507 11.8268 89.3604 12.0382 89.4231 12.2594L89.4421 12.3266L91.9208 12.0579L91.9042 11.971C91.7277 11.0418 91.2615 10.2937 90.5189 9.74877C89.7788 9.2055 88.7556 8.92936 87.4775 8.92936C86.6079 8.92936 85.8298 9.0662 85.1639 9.33743C84.4939 9.60947 83.9642 9.99951 83.5888 10.4953C83.2117 10.9943 83.0227 11.59 83.0277 12.2652C83.0227 13.0657 83.2794 13.7368 83.7893 14.2604C84.2959 14.78 85.0839 15.1536 86.1309 15.3699L87.9726 15.7542C88.4536 15.8583 88.8117 16.0074 89.037 16.1975C89.2565 16.3827 89.3629 16.6113 89.3629 16.8965C89.3629 17.2341 89.1946 17.511 88.8472 17.7429C88.4949 17.9789 88.0196 18.0994 87.4346 18.0994C86.8496 18.0994 86.4032 17.9797 86.0534 17.7438C85.7068 17.5102 85.4774 17.1579 85.3702 16.6966L85.3537 16.6269L82.7125 16.8793L82.7257 16.9653C82.8833 17.9707 83.38 18.7656 84.2018 19.3285C85.0187 19.8873 86.1087 20.1709 87.4412 20.1709C88.348 20.1709 89.1632 20.0234 89.8637 19.7316C90.5676 19.4391 91.127 19.0245 91.5255 18.5009C91.9257 17.9748 92.132 17.3578 92.1361 16.6671C92.1311 15.8796 91.8679 15.2323 91.3547 14.7439C90.8465 14.2604 90.0659 13.904 89.0329 13.6819L89.0353 13.6795Z" fill="#FA2027"/>
<path d="M99.6867 8.93264C99.5093 8.92117 99.3476 8.91462 99.2065 8.91462C98.5728 8.91462 98.0026 9.08997 97.51 9.43576C97.0546 9.75615 96.7188 10.2044 96.5117 10.7706V9.06785H93.8779V19.9586H96.5884V13.5705C96.5884 13.1313 96.6907 12.7388 96.8929 12.4045C97.095 12.0693 97.3764 11.8039 97.7295 11.6138C98.0835 11.4237 98.4903 11.327 98.9383 11.327C99.1487 11.327 99.3715 11.3417 99.5992 11.3712C99.8245 11.4007 99.9903 11.4335 100.093 11.4687L100.202 11.5064V8.9982L100.136 8.98509C100.016 8.96132 99.8649 8.9433 99.6859 8.93101L99.6867 8.93264Z" fill="#FA2027"/>
<path d="M109.43 10.2511C108.966 9.80285 108.426 9.46607 107.825 9.25139C107.226 9.03752 106.58 8.92854 105.909 8.92854C104.867 8.92854 103.946 9.16863 103.172 9.64225C102.398 10.1159 101.788 10.7853 101.359 11.6301C100.931 12.4733 100.714 13.4648 100.714 14.5759C100.714 15.687 100.93 16.7015 101.356 17.5356C101.783 18.3731 102.403 19.0278 103.199 19.4834C103.993 19.9381 104.95 20.1684 106.043 20.1684C106.888 20.1684 107.651 20.0381 108.309 19.7825C108.97 19.5252 109.521 19.1564 109.947 18.6853C110.374 18.2141 110.668 17.6528 110.82 17.0186L110.841 16.9284L108.307 16.6457L108.285 16.7056C108.178 16.9948 108.017 17.2406 107.807 17.4357C107.595 17.6315 107.343 17.7823 107.055 17.8822C106.765 17.9838 106.436 18.0346 106.076 18.0346C105.54 18.0346 105.066 17.9199 104.669 17.693C104.272 17.4668 103.959 17.1349 103.738 16.7072C103.534 16.3122 103.422 15.8354 103.405 15.2872H110.926V14.4301C110.926 13.4836 110.792 12.6552 110.527 11.9669C110.261 11.277 109.892 10.6993 109.428 10.2511H109.43ZM103.415 13.4197C103.448 13.0453 103.553 12.6921 103.727 12.3709C103.938 11.9825 104.236 11.6637 104.617 11.4236C104.995 11.1844 105.442 11.0631 105.944 11.0631C106.414 11.0631 106.831 11.1696 107.184 11.3794C107.538 11.5892 107.817 11.8809 108.015 12.2455C108.203 12.5897 108.305 12.9846 108.32 13.4197H103.415H103.415Z" fill="#FA2027"/>
<path d="M114.079 4.80118C113.657 4.80118 113.287 4.94376 112.983 5.22482C112.676 5.50751 112.521 5.8533 112.521 6.25236C112.521 6.65141 112.676 6.99802 112.983 7.28317C113.288 7.56669 113.657 7.71009 114.08 7.71009C114.503 7.71009 114.878 7.56751 115.181 7.28645C115.485 7.00376 115.639 6.65796 115.639 6.25973C115.639 5.8615 115.485 5.51407 115.181 5.22973C114.879 4.94622 114.508 4.802 114.081 4.802L114.079 4.80118Z" fill="#FA2027"/>
<path d="M115.427 9.06866H112.717V19.9594H115.427V9.06866Z" fill="#FA2027"/>
<path d="M123.512 13.6795L121.67 13.2886C121.137 13.1665 120.752 13.01 120.527 12.824C120.308 12.6437 120.204 12.4151 120.208 12.1251C120.204 11.7891 120.365 11.522 120.701 11.3081C121.044 11.0893 121.478 10.9787 121.989 10.9787C122.368 10.9787 122.692 11.0393 122.952 11.1598C123.211 11.2794 123.42 11.4384 123.573 11.6318C123.727 11.8268 123.837 12.0382 123.9 12.2594L123.919 12.3266L126.397 12.0579L126.381 11.971C126.204 11.0418 125.738 10.2945 124.995 9.74877C124.255 9.2055 123.232 8.92936 121.954 8.92936C121.084 8.92936 120.306 9.0662 119.64 9.33743C118.97 9.60947 118.441 9.99951 118.066 10.4953C117.688 10.9943 117.5 11.59 117.504 12.2652C117.499 13.0657 117.756 13.7368 118.266 14.2604C118.772 14.78 119.56 15.1536 120.607 15.3699L122.449 15.7542C122.93 15.8583 123.288 16.0074 123.513 16.1975C123.733 16.3827 123.839 16.6113 123.839 16.8965C123.839 17.2341 123.671 17.511 123.324 17.7429C122.971 17.9789 122.496 18.0994 121.911 18.0994C121.326 18.0994 120.88 17.9797 120.53 17.7438C120.183 17.5102 119.954 17.1579 119.847 16.6966L119.83 16.6269L117.189 16.8793L117.202 16.9653C117.36 17.9707 117.857 18.7656 118.678 19.3285C119.495 19.8873 120.585 20.1709 121.918 20.1709C122.825 20.1709 123.64 20.0234 124.34 19.7316C125.044 19.4383 125.603 19.0245 126.002 18.5009C126.402 17.9748 126.608 17.3578 126.613 16.6671C126.608 15.8796 126.344 15.2323 125.831 14.7439C125.323 14.2604 124.542 13.904 123.509 13.6819L123.512 13.6795Z" fill="#FA2027"/>
<path d="M136.665 10.2511C136.201 9.80285 135.662 9.46607 135.06 9.25139C134.461 9.03752 133.816 8.92854 133.144 8.92854C132.102 8.92854 131.181 9.16863 130.407 9.64225C129.633 10.1159 129.024 10.7853 128.594 11.6301C128.166 12.4733 127.949 13.464 127.949 14.5759C127.949 15.6879 128.165 16.7015 128.591 17.5356C129.019 18.3731 129.639 19.0278 130.434 19.4834C131.228 19.9381 132.185 20.1684 133.278 20.1684C134.124 20.1684 134.886 20.0381 135.544 19.7825C136.205 19.5252 136.756 19.1564 137.182 18.6853C137.609 18.2141 137.903 17.6528 138.055 17.0186L138.077 16.9284L135.543 16.6457L135.52 16.7056C135.413 16.9948 135.252 17.2406 135.042 17.4357C134.831 17.6315 134.578 17.7823 134.29 17.8822C134.001 17.9838 133.671 18.0346 133.312 18.0346C132.775 18.0346 132.302 17.9199 131.904 17.693C131.507 17.4668 131.194 17.1349 130.973 16.7072C130.769 16.3122 130.657 15.8354 130.641 15.2872H138.162V14.4301C138.162 13.4845 138.027 12.6552 137.762 11.9669C137.497 11.277 137.127 10.6993 136.663 10.2511H136.665ZM130.651 13.4197C130.684 13.0453 130.788 12.6921 130.963 12.3709C131.173 11.9825 131.472 11.6637 131.852 11.4236C132.231 11.1844 132.677 11.0631 133.179 11.0631C133.649 11.0631 134.067 11.1696 134.42 11.3794C134.773 11.59 135.053 11.8809 135.251 12.2455C135.438 12.5897 135.54 12.9846 135.555 13.4197H130.65H130.651Z" fill="#FA2027"/>
<path d="M141.206 16.8899C140.759 16.8899 140.37 17.0481 140.051 17.3603C139.731 17.6733 139.572 18.0551 139.577 18.4935C139.572 18.9434 139.732 19.3293 140.051 19.6423C140.37 19.9545 140.759 20.1127 141.206 20.1127C141.497 20.1127 141.767 20.0398 142.012 19.8947C142.254 19.7513 142.453 19.5555 142.602 19.3121C142.753 19.0679 142.831 18.7934 142.836 18.4935C142.831 18.0543 142.665 17.6725 142.343 17.3603C142.022 17.0481 141.639 16.8899 141.206 16.8899Z" fill="#FA2027"/>
<path d="M152.569 9.72091C152.137 9.43985 151.652 9.23582 151.129 9.11291C150.609 8.99082 150.08 8.92936 149.557 8.92936C148.796 8.92936 148.091 9.04244 147.462 9.26614C146.829 9.49066 146.286 9.83071 145.848 10.2781C145.409 10.7255 145.089 11.2884 144.899 11.9505L144.873 12.0407L147.411 12.3987L147.433 12.3348C147.554 11.9849 147.792 11.676 148.14 11.4171C148.487 11.159 148.968 11.0287 149.571 11.0287C150.137 11.0287 150.575 11.1672 150.872 11.44C151.167 11.7113 151.316 12.1021 151.316 12.602V12.6437C151.316 12.8576 151.241 13.01 151.084 13.1092C150.915 13.2165 150.636 13.2968 150.255 13.3484C149.864 13.4017 149.347 13.4615 148.718 13.5263C148.192 13.582 147.676 13.6729 147.184 13.7975C146.688 13.922 146.237 14.108 145.843 14.3481C145.443 14.5915 145.124 14.9209 144.893 15.3273C144.662 15.7337 144.545 16.2524 144.545 16.8686C144.545 17.5848 144.709 18.1969 145.033 18.6877C145.357 19.1785 145.804 19.5538 146.362 19.8038C146.917 20.052 147.549 20.1774 148.242 20.1774C148.812 20.1774 149.317 20.0971 149.745 19.9381C150.172 19.7792 150.534 19.5645 150.82 19.2998C151.064 19.0737 151.264 18.8287 151.415 18.5722V19.9611H154.028V12.7003C154.028 11.9776 153.893 11.3646 153.628 10.8804C153.362 10.3961 153.006 10.0061 152.57 9.72337L152.569 9.72091ZM151.323 16.0296C151.323 16.4081 151.224 16.7629 151.029 17.0833C150.834 17.4045 150.552 17.6659 150.192 17.8601C149.83 18.0551 149.396 18.1543 148.902 18.1543C148.408 18.1543 147.968 18.0396 147.641 17.8126C147.32 17.5897 147.164 17.266 147.164 16.8252C147.164 16.5204 147.245 16.2688 147.405 16.0779C147.568 15.8829 147.796 15.7272 148.081 15.6166C148.373 15.5035 148.71 15.4199 149.082 15.3699C149.251 15.347 149.45 15.3191 149.68 15.2863C149.909 15.2536 150.144 15.2159 150.379 15.1741C150.615 15.1323 150.832 15.0823 151.024 15.025C151.145 14.9897 151.244 14.9528 151.323 14.9127V16.0296Z" fill="#FA2027"/>
<path d="M161.537 17.6946L161.454 17.7167C161.387 17.7348 161.286 17.7552 161.155 17.7782C161.027 17.8003 160.884 17.8118 160.73 17.8118C160.53 17.8118 160.346 17.7806 160.182 17.7192C160.026 17.6602 159.903 17.552 159.806 17.3881C159.709 17.2226 159.659 16.9743 159.659 16.6507V11.1877H161.79V9.06867H159.659V6.499H156.949V9.06867H155.416V11.1877H156.949V17.0694C156.944 17.7536 157.096 18.3329 157.402 18.791C157.707 19.2498 158.128 19.5924 158.652 19.8095C159.13 20.0078 159.669 20.1078 160.256 20.1078C160.306 20.1078 160.357 20.1078 160.408 20.1053C160.774 20.0955 161.087 20.0619 161.342 20.0053C161.594 19.9488 161.792 19.8964 161.931 19.8488L162 19.8251L161.537 17.6938V17.6946Z" fill="#FA2027"/>
<path d="M26.7006 1.95373L19.5304 0.949951L18.5196 8.07145L20.8918 8.40331L21.2425 5.20515C22.5371 6.78088 23.3003 8.36725 23.4546 9.80368C23.5726 10.9066 23.316 11.935 22.7681 12.5536C22.0165 13.4017 20.9017 13.9442 19.6228 14.0835C18.4949 11.7793 16.6087 9.42921 14.1655 7.28317C11.9872 5.37395 9.61998 5.10682 8.2734 6.61863C6.92764 8.13045 7.48376 10.4313 9.65793 12.3463C12.4608 14.8078 15.2728 16.1893 18.0171 16.4524C18.2894 17.2628 18.4148 18.0142 18.3917 18.6869C18.3571 19.6833 17.9841 20.4601 17.282 20.996C15.4931 22.362 11.5408 21.6409 7.66941 19.2408C5.53567 17.9175 3.54468 16.1582 1.91426 14.1523L1.86228 14.0884L0 15.5822L0.051982 15.6461C1.84908 17.8552 4.0447 19.7956 6.40204 21.2574C9.30644 23.0585 12.2859 24.05 14.7918 24.05C16.3727 24.05 17.7383 23.6452 18.7399 22.8798C20.0172 21.9047 20.7235 20.4831 20.7821 18.7689C20.8085 18.0109 20.7087 17.2005 20.4859 16.359C22.1254 16.0574 23.5338 15.2864 24.5628 14.1253C25.0397 13.5869 26.1214 12.0669 25.8755 9.57343C25.6948 7.73795 24.7534 5.73449 23.1493 3.76954L26.3656 4.30953L26.6998 1.95455L26.7006 1.95373ZM10.0647 8.19436C10.158 8.08947 10.3065 8.03621 10.5061 8.03621C11.0532 8.03621 11.8676 8.44018 12.5805 9.06539C14.2728 10.5518 15.6961 12.1792 16.7093 13.7827C14.937 13.2649 13.0516 12.157 11.2438 10.5682C10.2438 9.68732 9.70331 8.60079 10.0655 8.19436H10.0647Z" fill="#FA2027"/>
</svg>
