<svg width="170" height="24" viewBox="0 0 170 24" fill="none" xmlns="http://www.w3.org/2000/svg">
  <g id="logos/berufsreise.at">
    <g id="Union">
      <path d="M42.9032 8.95945C42.1863 8.51505 41.3724 8.28945 40.4849 8.28945C39.8095 8.28945 39.245 8.40353 38.8069 8.62913C38.3705 8.85388 38.0181 9.12716 37.7609 9.44216C37.5375 9.71544 37.3566 9.97765 37.2215 10.2237V4.7198H34.3771V19.7501H37.1773V17.9947H37.1938C37.3366 18.2569 37.5341 18.5353 37.7808 18.8239C38.0458 19.1338 38.4008 19.4011 38.8372 19.6182C39.2753 19.8361 39.8329 19.9468 40.4927 19.9468C41.3958 19.9468 42.2166 19.7152 42.931 19.2581C43.6453 18.8017 44.2168 18.1309 44.6298 17.2642C45.0419 16.4001 45.2506 15.3385 45.2506 14.1083C45.2506 12.8781 45.0376 11.7952 44.6185 10.9337C44.1977 10.0696 43.621 9.40555 42.9041 8.96115L42.9032 8.95945ZM42.053 15.9242C41.8556 16.4512 41.5603 16.8709 41.1767 17.1714C40.7957 17.4694 40.3152 17.6209 39.7472 17.6209C39.1792 17.6209 38.7359 17.4745 38.3575 17.1851C37.9756 16.8939 37.6804 16.4801 37.4778 15.9557C37.2734 15.4262 37.1695 14.7996 37.1695 14.0922C37.1695 13.3847 37.2708 12.7632 37.47 12.243C37.6674 11.7288 37.9618 11.3245 38.3454 11.0401C38.7263 10.7575 39.1982 10.6144 39.7472 10.6144C40.2961 10.6144 40.8035 10.7626 41.1845 11.0537C41.5681 11.3474 41.8616 11.7595 42.0564 12.2788C42.2539 12.8041 42.3534 13.4136 42.3534 14.0922C42.3534 14.7707 42.2521 15.3913 42.0521 15.9234L42.053 15.9242Z" fill="white"/>
      <path d="M55.808 9.6635C55.3214 9.19782 54.7551 8.84792 54.1239 8.62487C53.4953 8.40267 52.8182 8.28944 52.1134 8.28944C51.0198 8.28944 50.0535 8.53889 49.2414 9.03096C48.4292 9.52303 47.7893 10.2186 47.3391 11.0963C46.8897 11.9723 46.662 13.0024 46.662 14.1568C46.662 15.3113 46.8888 16.3652 47.3356 17.2319C47.7841 18.1019 48.4344 18.7822 49.2699 19.2555C50.1029 19.728 51.1073 19.9672 52.2537 19.9672C53.1412 19.9672 53.9412 19.8319 54.6322 19.5662C55.3257 19.2989 55.9041 18.9158 56.3509 18.4263C56.7986 17.9368 57.1077 17.3536 57.267 16.6947L57.2895 16.601L54.6305 16.3073L54.6071 16.3695C54.4945 16.67 54.3257 16.9254 54.1049 17.128C53.8832 17.3315 53.6183 17.4881 53.3161 17.592C53.0122 17.6976 52.6667 17.7503 52.2892 17.7503C51.7264 17.7503 51.2294 17.6311 50.812 17.3953C50.3955 17.1604 50.0674 16.8156 49.8353 16.3712C49.6215 15.9608 49.5037 15.4654 49.4864 14.8958H57.3787V14.0053C57.3787 13.0229 57.2376 12.1613 56.9596 11.4462C56.6808 10.7294 56.2929 10.1292 55.8063 9.6635H55.808ZM49.4968 12.9556C49.5314 12.5666 49.6414 12.1996 49.8241 11.8659C50.0449 11.4624 50.3583 11.1312 50.7575 10.8818C51.1549 10.6332 51.6233 10.5072 52.1498 10.5072C52.6433 10.5072 53.0814 10.6178 53.452 10.8358C53.8226 11.0537 54.1161 11.3568 54.3239 11.7356C54.5205 12.0932 54.6279 12.5036 54.6435 12.9556H49.4959H49.4968Z" fill="white"/>
      <path d="M65.3532 8.29371C65.1671 8.28179 64.9974 8.27498 64.8493 8.27498C64.1843 8.27498 63.586 8.45716 63.0691 8.81643C62.5911 9.1493 62.2387 9.61498 62.0214 10.2033V8.43418H59.2576V19.7493H62.1019V13.1123C62.1019 12.656 62.2093 12.2482 62.4214 11.9008C62.6336 11.5526 62.9288 11.2768 63.2994 11.0793C63.6709 10.8818 64.0977 10.7813 64.5679 10.7813C64.7887 10.7813 65.0225 10.7966 65.2614 10.8273C65.4978 10.8579 65.6719 10.892 65.7792 10.9286L65.8944 10.9678V8.36266L65.8251 8.34904C65.6987 8.32436 65.5394 8.30562 65.3524 8.29285L65.3532 8.29371Z" fill="white"/>
      <path d="M74.6413 14.9775C74.6413 15.5249 74.5253 15.9847 74.2967 16.3439C74.0672 16.704 73.772 16.9782 73.4187 17.1587C73.0637 17.34 72.6922 17.4319 72.3147 17.4319C71.7034 17.4319 71.203 17.231 70.828 16.8351C70.4514 16.4376 70.2609 15.891 70.2609 15.2099V8.43502H67.4166V15.616C67.4166 16.515 67.5811 17.294 67.9058 17.9291C68.2313 18.5676 68.6911 19.0605 69.2712 19.3943C69.8505 19.7271 70.5267 19.8957 71.2817 19.8957C72.1467 19.8957 72.887 19.6905 73.4819 19.2853C74.0404 18.9056 74.4577 18.4161 74.7227 17.8295V19.7501H77.4865V8.43502H74.6421V14.9775H74.6413Z" fill="white"/>
      <path d="M83.8488 6.69235C84.035 6.47866 84.3666 6.37054 84.835 6.37054C85.0394 6.37054 85.2273 6.38842 85.3927 6.42333C85.5606 6.45908 85.7026 6.49399 85.8135 6.52634L85.9 6.55188L86.4741 4.35799L86.3979 4.33245C86.223 4.27371 85.9511 4.20645 85.5901 4.13409C85.2273 4.06087 84.8065 4.02341 84.3406 4.02341C83.6765 4.02341 83.0635 4.15026 82.518 4.40141C81.9691 4.65425 81.5257 5.04076 81.201 5.55071C80.8763 6.06066 80.7118 6.70512 80.7118 7.46792V8.43503H79.0364V10.6366H80.7118V19.7501H83.564V10.6366H85.9104V8.43503H83.564V7.64244C83.564 7.23039 83.6601 6.91029 83.8497 6.6932L83.8488 6.69235Z" fill="white"/>
      <path d="M93.4321 13.2255L91.4995 12.8194C90.9402 12.6926 90.5367 12.5299 90.2995 12.3367C90.07 12.1494 89.9609 11.9119 89.9652 11.6105C89.9609 11.2615 90.1298 10.9839 90.4822 10.7617C90.8424 10.5344 91.2978 10.4195 91.8337 10.4195C92.232 10.4195 92.5723 10.4825 92.8451 10.6076C93.117 10.7319 93.336 10.8971 93.4962 11.098C93.6581 11.3006 93.7733 11.5203 93.8391 11.7501L93.859 11.8199L96.46 11.5407L96.4427 11.4505C96.2574 10.485 95.7682 9.70777 94.989 9.14163C94.2123 8.5772 93.1386 8.29029 91.7974 8.29029C90.8848 8.29029 90.0683 8.43247 89.3695 8.71426C88.6665 8.9969 88.1106 9.40214 87.7166 9.9172C87.3209 10.4357 87.1226 11.0546 87.1278 11.7561C87.1226 12.5878 87.3919 13.2851 87.927 13.8291C88.4586 14.3688 89.2855 14.757 90.3843 14.9818L92.3169 15.3811C92.8217 15.4892 93.1975 15.6441 93.4339 15.8416C93.6642 16.034 93.7759 16.2716 93.7759 16.5678C93.7759 16.9186 93.5993 17.2063 93.2347 17.4473C92.865 17.6924 92.3663 17.8176 91.7524 17.8176C91.1385 17.8176 90.67 17.6933 90.3029 17.4481C89.9393 17.2055 89.6985 16.8394 89.586 16.3601L89.5687 16.2877L86.7971 16.55L86.8109 16.6393C86.9763 17.6839 87.4975 18.5097 88.3599 19.0946C89.2171 19.6752 90.3609 19.9698 91.7593 19.9698C92.7109 19.9698 93.5663 19.8165 94.3014 19.5134C95.04 19.2095 95.6271 18.7787 96.0453 18.2347C96.4652 17.6882 96.6817 17.0471 96.686 16.3295C96.6808 15.5113 96.4046 14.8388 95.8661 14.3314C95.3327 13.8291 94.5136 13.4588 93.4295 13.228L93.4321 13.2255Z" fill="white"/>
      <path d="M104.609 8.29371C104.423 8.28179 104.254 8.27498 104.106 8.27498C103.441 8.27498 102.842 8.45716 102.325 8.81643C101.847 9.1493 101.495 9.61498 101.278 10.2033V8.43418H98.5138V19.7493H101.358V13.1123C101.358 12.656 101.466 12.2482 101.678 11.9008C101.89 11.5526 102.185 11.2768 102.556 11.0793C102.927 10.8818 103.354 10.7813 103.824 10.7813C104.045 10.7813 104.279 10.7966 104.518 10.8273C104.754 10.8579 104.928 10.892 105.035 10.9286L105.151 10.9678V8.36181L105.081 8.34819C104.955 8.3235 104.797 8.30477 104.609 8.292L104.609 8.29371Z" fill="white"/>
      <path d="M114.834 9.6635C114.347 9.19782 113.781 8.84792 113.149 8.62487C112.521 8.40267 111.844 8.28944 111.139 8.28944C110.045 8.28944 109.079 8.53889 108.267 9.03096C107.455 9.52303 106.815 10.2186 106.365 11.0963C105.915 11.9723 105.687 13.0024 105.687 14.1568C105.687 15.3113 105.914 16.3652 106.361 17.2319C106.81 18.1019 107.46 18.7822 108.295 19.2555C109.128 19.728 110.133 19.9672 111.279 19.9672C112.167 19.9672 112.967 19.8319 113.658 19.5662C114.351 19.2989 114.93 18.9158 115.376 18.4263C115.824 17.9368 116.133 17.3536 116.293 16.6947L116.315 16.601L113.656 16.3073L113.633 16.3695C113.52 16.67 113.351 16.9254 113.13 17.128C112.909 17.3315 112.644 17.4881 112.342 17.592C112.038 17.6976 111.692 17.7503 111.315 17.7503C110.752 17.7503 110.255 17.6311 109.838 17.3953C109.421 17.1604 109.093 16.8156 108.861 16.3712C108.647 15.9608 108.529 15.4654 108.512 14.8958H116.404V14.0053C116.404 13.022 116.263 12.1613 115.985 11.4462C115.706 10.7294 115.318 10.1292 114.832 9.6635H114.834ZM108.522 12.9556C108.557 12.5666 108.667 12.1996 108.85 11.8659C109.07 11.4624 109.384 11.1312 109.783 10.8818C110.18 10.6332 110.649 10.5072 111.175 10.5072C111.669 10.5072 112.107 10.6178 112.478 10.8358C112.848 11.0537 113.142 11.3568 113.349 11.7356C113.546 12.0932 113.653 12.5036 113.669 12.9556H108.521H108.522Z" fill="white"/>
      <path d="M119.713 4.00128C119.269 4.00128 118.881 4.14941 118.562 4.44142C118.24 4.73513 118.077 5.09439 118.077 5.50899C118.077 5.92359 118.24 6.28371 118.562 6.57997C118.882 6.87453 119.269 7.02352 119.714 7.02352C120.158 7.02352 120.551 6.87539 120.869 6.58338C121.188 6.28967 121.35 5.9304 121.35 5.51665C121.35 5.1029 121.188 4.74194 120.869 4.44653C120.552 4.15196 120.163 4.00213 119.714 4.00213L119.713 4.00128Z" fill="white"/>
      <path d="M121.127 8.43502H118.283V19.7501H121.127V8.43502Z" fill="white"/>
      <path d="M129.611 13.2255L127.679 12.8194C127.119 12.6926 126.715 12.5299 126.478 12.3367C126.249 12.1494 126.14 11.9119 126.144 11.6105C126.14 11.2615 126.309 10.9839 126.661 10.7617C127.021 10.5344 127.477 10.4195 128.013 10.4195C128.411 10.4195 128.751 10.4825 129.024 10.6076C129.296 10.7319 129.515 10.8971 129.675 11.098C129.837 11.3006 129.952 11.5203 130.018 11.7501L130.038 11.8199L132.639 11.5407L132.622 11.4505C132.436 10.485 131.947 9.70862 131.168 9.14163C130.391 8.5772 129.318 8.29029 127.976 8.29029C127.064 8.29029 126.247 8.43247 125.549 8.71426C124.845 8.9969 124.29 9.40214 123.897 9.9172C123.5 10.4357 123.303 11.0546 123.307 11.7561C123.302 12.5878 123.571 13.2851 124.106 13.8291C124.638 14.3688 125.465 14.757 126.563 14.9818L128.496 15.3811C129.001 15.4892 129.377 15.6441 129.613 15.8416C129.843 16.034 129.955 16.2716 129.955 16.5678C129.955 16.9186 129.778 17.2063 129.414 17.4473C129.044 17.6924 128.545 17.8176 127.931 17.8176C127.318 17.8176 126.849 17.6933 126.482 17.4481C126.118 17.2055 125.878 16.8394 125.765 16.3601L125.748 16.2877L122.976 16.55L122.99 16.6393C123.155 17.6839 123.677 18.5097 124.539 19.0946C125.396 19.6752 126.54 19.9698 127.938 19.9698C128.89 19.9698 129.745 19.8165 130.48 19.5134C131.219 19.2087 131.806 18.7787 132.224 18.2347C132.644 17.6882 132.861 17.0471 132.865 16.3295C132.86 15.5113 132.584 14.8388 132.045 14.3314C131.512 13.8291 130.693 13.4588 129.609 13.228L129.611 13.2255Z" fill="white"/>
      <path d="M143.414 9.6635C142.927 9.19782 142.361 8.84792 141.73 8.62487C141.101 8.40267 140.424 8.28944 139.719 8.28944C138.626 8.28944 137.659 8.53889 136.847 9.03096C136.035 9.52303 135.395 10.2186 134.945 11.0963C134.495 11.9723 134.268 13.0016 134.268 14.1568C134.268 15.3121 134.495 16.3652 134.941 17.2319C135.39 18.1019 136.041 18.7822 136.876 19.2555C137.709 19.728 138.713 19.9672 139.859 19.9672C140.747 19.9672 141.547 19.8319 142.238 19.5662C142.931 19.2989 143.51 18.9158 143.957 18.4263C144.404 17.9368 144.713 17.3536 144.873 16.6947L144.895 16.601L142.236 16.3073L142.213 16.3695C142.1 16.67 141.931 16.9254 141.711 17.128C141.489 17.3315 141.224 17.4881 140.922 17.592C140.618 17.6976 140.272 17.7503 139.895 17.7503C139.332 17.7503 138.835 17.6311 138.418 17.3953C138.001 17.1604 137.673 16.8156 137.441 16.3712C137.227 15.9608 137.109 15.4654 137.092 14.8958H144.984V14.0053C144.984 13.0229 144.843 12.1613 144.565 11.4462C144.287 10.7294 143.899 10.1292 143.412 9.6635H143.414ZM137.103 12.9556C137.137 12.5666 137.247 12.1996 137.43 11.8659C137.651 11.4624 137.964 11.1312 138.363 10.8818C138.761 10.6332 139.229 10.5072 139.755 10.5072C140.249 10.5072 140.687 10.6178 141.058 10.8358C141.428 11.0546 141.722 11.3568 141.93 11.7356C142.126 12.0932 142.234 12.5036 142.249 12.9556H137.102H137.103Z" fill="white"/>
      <path d="M148.179 16.561C147.71 16.561 147.302 16.7253 146.967 17.0497C146.631 17.3749 146.464 17.7716 146.469 18.2271C146.464 18.6945 146.632 19.0955 146.967 19.4207C147.302 19.745 147.71 19.9093 148.179 19.9093C148.484 19.9093 148.768 19.8336 149.025 19.6829C149.279 19.5339 149.488 19.3304 149.644 19.0776C149.802 18.8239 149.884 18.5387 149.89 18.2271C149.884 17.7708 149.71 17.3741 149.373 17.0497C149.035 16.7253 148.633 16.561 148.179 16.561Z" fill="white"/>
      <path d="M160.103 9.11269C159.65 8.82068 159.141 8.60869 158.592 8.48099C158.047 8.35415 157.492 8.29029 156.942 8.29029C156.144 8.29029 155.404 8.40778 154.744 8.64019C154.079 8.87346 153.51 9.22676 153.05 9.69159C152.589 10.1564 152.254 10.7413 152.054 11.4292L152.027 11.5228L154.691 11.8948L154.714 11.8284C154.841 11.4649 155.09 11.144 155.455 10.875C155.82 10.6068 156.325 10.4714 156.957 10.4714C157.552 10.4714 158.01 10.6153 158.322 10.8988C158.632 11.1806 158.789 11.5867 158.789 12.106V12.1494C158.789 12.3716 158.709 12.5299 158.545 12.633C158.367 12.7445 158.075 12.8279 157.675 12.8815C157.265 12.9369 156.722 12.999 156.062 13.0663C155.51 13.1242 154.969 13.2187 154.453 13.3481C153.932 13.4775 153.459 13.6707 153.045 13.9202C152.626 14.173 152.291 14.5153 152.048 14.9375C151.806 15.3598 151.683 15.8987 151.683 16.5389C151.683 17.283 151.855 17.9189 152.195 18.4288C152.535 18.9388 153.004 19.3287 153.59 19.5884C154.172 19.8463 154.835 19.9766 155.563 19.9766C156.161 19.9766 156.691 19.8931 157.139 19.728C157.588 19.5628 157.968 19.3398 158.268 19.0648C158.524 18.8298 158.733 18.5753 158.893 18.3088V19.7518H161.634V12.2081C161.634 11.4573 161.493 10.8205 161.214 10.3173C160.935 9.81419 160.562 9.40895 160.104 9.11524L160.103 9.11269ZM158.796 15.6671C158.796 16.0604 158.692 16.4291 158.488 16.7619C158.282 17.0957 157.987 17.3672 157.609 17.569C157.229 17.7716 156.774 17.8746 156.255 17.8746C155.737 17.8746 155.275 17.7554 154.932 17.5196C154.595 17.2881 154.431 16.9518 154.431 16.4938C154.431 16.1771 154.516 15.9157 154.684 15.7173C154.855 15.5147 155.094 15.353 155.394 15.238C155.7 15.1206 156.054 15.0337 156.444 14.9818C156.622 14.958 156.83 14.929 157.072 14.895C157.312 14.8609 157.558 14.8217 157.805 14.7783C158.053 14.7349 158.281 14.683 158.482 14.6234C158.609 14.5868 158.713 14.5485 158.796 14.5067V15.6671Z" fill="white"/>
      <path d="M169.514 17.397L169.427 17.42C169.357 17.4388 169.251 17.46 169.113 17.4839C168.979 17.5069 168.829 17.5188 168.667 17.5188C168.457 17.5188 168.264 17.4864 168.093 17.4226C167.928 17.3613 167.799 17.2489 167.698 17.0786C167.596 16.9067 167.544 16.6487 167.544 16.3124V10.6366H169.779V8.43503H167.544V5.76524H164.699V8.43503H163.09V10.6366H164.699V16.7475C164.694 17.4583 164.854 18.0602 165.175 18.5361C165.495 19.0129 165.937 19.3687 166.486 19.5943C166.989 19.8004 167.554 19.9042 168.17 19.9042C168.222 19.9042 168.276 19.9042 168.33 19.9017C168.713 19.8915 169.042 19.8565 169.309 19.7978C169.574 19.7391 169.782 19.6846 169.927 19.6352L170 19.6105L169.514 17.3962V17.397Z" fill="white"/>
      <path d="M28.0192 1.04289L20.4949 0L19.4342 7.39896L21.9235 7.74375L22.2915 4.42099C23.65 6.0581 24.451 7.70629 24.6129 9.19868C24.7367 10.3446 24.4674 11.413 23.8925 12.0558C23.1037 12.9369 21.9339 13.5005 20.5918 13.6452C19.4082 11.2512 17.4289 8.80962 14.865 6.57997C12.5792 4.59636 10.095 4.31882 8.68196 5.88954C7.26974 7.46025 7.85333 9.8508 10.1349 11.8404C13.0762 14.3978 16.027 15.8331 18.9069 16.1064C19.1926 16.9484 19.3242 17.7291 19.3 18.428C19.2636 19.4632 18.8722 20.2703 18.1354 20.8271C16.2582 22.2462 12.1108 21.4971 8.04815 19.0035C5.80904 17.6286 3.71973 15.8008 2.00879 13.7167L1.95424 13.6503L0 15.2023L0.0545491 15.2687C1.94039 17.5639 4.24444 19.5799 6.71819 21.0986C9.76601 22.9699 12.8926 24 15.5222 24C17.1812 24 18.6142 23.5794 19.6654 22.7843C21.0057 21.7712 21.7469 20.2941 21.8084 18.5131C21.8361 17.7257 21.7313 16.8837 21.4975 16.0094C23.218 15.6961 24.696 14.895 25.7757 13.6886C26.2762 13.1293 27.4113 11.5501 27.1533 8.95945C26.9637 7.05246 25.9757 4.97095 24.2925 2.92945L27.6676 3.49048L28.0183 1.04374L28.0192 1.04289ZM10.5617 7.52666C10.6596 7.41769 10.8154 7.36235 11.025 7.36235C11.599 7.36235 12.4536 7.78206 13.2017 8.43163C14.9776 9.97595 16.4712 11.6667 17.5345 13.3328C15.6746 12.7947 13.6961 11.6437 11.799 9.99298C10.7496 9.07779 10.1825 7.94892 10.5626 7.52666H10.5617Z" fill="white"/>
    </g>
  </g>
</svg>
