<?xml version="1.0" encoding="UTF-8"?>
<svg id="TEASER" xmlns="http://www.w3.org/2000/svg" viewBox="0 0 2400 1600">
  <defs>
    <style>
      .cls-1 {
        fill: #ffc800;
      }

      .cls-2 {
        fill: #00a050;
        stroke-linejoin: bevel;
      }

      .cls-2, .cls-3 {
        stroke: #000;
        stroke-width: 35px;
      }

      .cls-3 {
        fill: #1e5f6e;
      }
    </style>
  </defs>
  <rect class="cls-1" width="2400" height="1600"/>
  <g>
    <circle class="cls-3" cx="845.21" cy="589.04" r="284.04"/>
    <path class="cls-3" d="m343.91,1295c0-233.03,224.44-421.93,501.3-421.93s501.3,188.9,501.3,421.93H343.91Z"/>
  </g>
  <g>
    <path class="cls-3" d="m2056.09,654.73c0-206.3-178.62-370.87-389.64-347.51-156.55,17.33-284.64,141.37-306.32,297.38-17.27,124.23,30.84,238.05,114.81,312.22,24.14,21.32,37.73,52.1,37.73,84.3v93.55c0,103.17,77.85,193.25,180.8,199.91,112.81,7.3,206.59-82.04,206.59-193.28v-100.17c0-31.94,13.18-62.73,37.16-83.82,72.86-64.07,118.87-157.93,118.87-262.59Z"/>
    <line class="cls-2" x1="1597.84" y1="1177.14" x2="1530.01" y2="1177.14"/>
    <line class="cls-2" x1="1900.06" y1="1001.14" x2="1512.67" y2="1001.14"/>
    <line class="cls-2" x1="1900.06" y1="1061.14" x2="1722.02" y2="1061.14"/>
    <line class="cls-2" x1="1899.25" y1="1119.14" x2="1514.14" y2="1119.14"/>
    <line class="cls-2" x1="1597.84" y1="1260.64" x2="1816.54" y2="1260.64"/>
  </g>
</svg>