<?xml version="1.0" encoding="UTF-8"?>
<svg id="TEASER" xmlns="http://www.w3.org/2000/svg" viewBox="0 0 2400 1600">
  <defs>
    <style>
      .cls-1 {
        fill: #1964b4;
      }

      .cls-2 {
        fill: #1e5f6e;
        stroke: #000;
        stroke-width: 34.98px;
      }
    </style>
  </defs>
  <rect class="cls-1" width="2400" height="1600"/>
  <path class="cls-2" d="m1096.15,1029.92v-9.95c.69-64.87,7.23-116.49,19.61-154.86,12.38-38.36,30.08-69.4,53.1-93.11,23.02-23.71,50.75-45.35,83.18-64.87,20.93-13.23,39.76-28.05,56.51-44.45,16.73-16.4,29.98-35.24,39.74-56.51,9.76-21.27,14.66-44.8,14.66-70.62,0-31.04-7.33-57.89-21.98-80.56-14.66-22.67-34.08-40.19-58.32-52.57-24.24-12.38-51.19-18.57-80.83-18.57-26.85,0-52.49,5.58-76.91,16.75-24.42,11.16-44.66,28.5-60.69,52.05-16.04,23.55-25.27,53.79-27.71,90.75h-159.04c2.44-62.76,18.29-115.86,47.6-159.28,29.29-43.42,68.08-76.28,116.39-98.61,48.31-22.33,101.76-33.49,160.36-33.49,64.16,0,120.31,11.96,168.46,35.85,48.13,23.89,85.54,57.2,112.21,99.91,26.67,42.73,40.03,92.52,40.03,149.36,0,39.07-6.11,74.21-18.31,105.43-12.22,31.22-29.57,59.03-52.07,83.43-22.49,24.42-49.45,46.04-80.83,64.87-29.64,18.49-53.61,37.67-71.92,57.55-18.31,19.89-31.67,43.42-40.03,70.62-8.36,27.2-12.91,60.86-13.6,100.96v9.95h-149.62Zm79,318.08c-28.62,0-53.2-10.19-73.79-30.61-20.58-20.4-30.85-45.08-30.85-74.03s10.27-53.08,30.85-73.5c20.58-20.4,45.16-30.61,73.79-30.61s52.74,10.21,73.48,30.61c20.75,20.42,31.14,44.92,31.14,73.5,0,19.2-4.81,36.72-14.39,52.59-9.58,15.87-22.23,28.5-37.92,37.92-15.71,9.42-33.15,14.13-52.31,14.13Z"/>
</svg>