<?xml version="1.0" encoding="UTF-8"?>
<svg id="TEASER" xmlns="http://www.w3.org/2000/svg" viewBox="0 0 2400 1600">
  <defs>
    <style>
      .cls-1 {
        fill: #1e5f6e;
      }

      .cls-2 {
        fill: #00a050;
        stroke-linejoin: bevel;
      }

      .cls-2, .cls-3 {
        stroke: #000;
        stroke-width: 35px;
      }

      .cls-3 {
        fill: #0096d2;
      }
    </style>
  </defs>
  <rect class="cls-1" width="2400" height="1600"/>
  <line class="cls-2" x1="505" y1="1224.45" x2="1895" y2="1224.45"/>
  <g>
    <rect class="cls-3" x="662.41" y="711.05" width="313.34" height="512.95"/>
    <rect class="cls-3" x="1043.33" y="554.25" width="313.34" height="669.75"/>
    <rect class="cls-3" x="1424.25" y="358" width="313.34" height="866"/>
  </g>
  <g>
    <path class="cls-3" d="m1509.97,1010.8c16.74-27.75,30.05-56.61,40.05-86.07l320.51,193.33c44.38,26.77,58.66,84.46,31.89,128.84-26.77,44.38-84.46,58.66-128.84,31.89l-320.31-193.2c21.1-22.4,40.16-47.37,56.69-74.78Z"/>
    <path class="cls-3" d="m1420.52,846.61l129.5,78.11c-10.01,29.46-23.32,58.32-40.05,86.07-16.54,27.42-35.59,52.38-56.69,74.78l-129.5-78.11c21.1-22.4,40.16-47.37,56.69-74.78,16.74-27.75,30.05-56.61,40.05-86.07Z"/>
    <path class="cls-3" d="m1231.04,328.98c-207.97-125.44-478.26-58.54-603.7,149.43-125.44,207.97-58.54,478.26,149.43,603.7,207.97,125.44,478.26,58.54,603.7-149.43,125.44-207.97,58.54-478.26-149.43-603.7Zm35.54,535.01c-87.5,145.07-276.05,191.74-421.12,104.24-145.07-87.5-191.74-276.05-104.24-421.12s276.05-191.74,421.12-104.24,191.74,276.05,104.24,421.12Z"/>
  </g>
</svg>